<svg xmlns="http://www.w3.org/2000/svg" xmlns:xlink="http://www.w3.org/1999/xlink" width="500" zoomAndPan="magnify" viewBox="0 0 375 374.999991" height="500" preserveAspectRatio="xMidYMid meet" version="1.0"><defs><g/></defs><rect x="-37.5" width="450" fill="#ffffff" y="-37.499999" height="449.999989" fill-opacity="1"/><rect x="-37.5" width="450" fill="#250e0e" y="-37.499999" height="449.999989" fill-opacity="1"/><g fill="#ffffff" fill-opacity="1"><g transform="translate(15.745724, 282.749981)"><g><path d="M 74.40625 3.59375 C 61.195312 3.59375 47.992188 -0.00390625 34.796875 -7.203125 C 30.398438 -9.398438 27.398438 -10.5 25.796875 -10.5 C 22.796875 -10.5 21.195312 -8.398438 21 -4.203125 L 20.703125 0 L 15 0 L 15 -50.09375 L 20.40625 -50.09375 C 22.195312 -34.695312 27.941406 -23.347656 37.640625 -16.046875 C 47.347656 -8.742188 58.847656 -5.09375 72.140625 -5.09375 C 85.441406 -5.09375 95.539062 -8.691406 102.4375 -15.890625 C 109.34375 -23.097656 112.796875 -31.601562 112.796875 -41.40625 C 112.796875 -57 103.796875 -68.796875 85.796875 -76.796875 L 50.09375 -92.703125 C 39.300781 -97.503906 31.203125 -104.050781 25.796875 -112.34375 C 20.398438 -120.644531 17.703125 -129.597656 17.703125 -139.203125 C 17.703125 -153.796875 22.597656 -166.34375 32.390625 -176.84375 C 42.191406 -187.34375 56.296875 -192.59375 74.703125 -192.59375 C 85.503906 -192.59375 96.601562 -188.992188 108 -181.796875 C 111.800781 -179.597656 114.398438 -178.5 115.796875 -178.5 C 118.398438 -178.5 119.800781 -180.597656 120 -184.796875 L 120.296875 -190.796875 L 126 -190.796875 L 126 -138.90625 L 120.59375 -138.90625 C 119 -154.300781 114.050781 -165.648438 105.75 -172.953125 C 97.445312 -180.253906 87.34375 -183.90625 75.4375 -183.90625 C 63.539062 -183.90625 54.34375 -180.65625 47.84375 -174.15625 C 41.34375 -167.65625 38.09375 -160.253906 38.09375 -151.953125 C 38.09375 -143.648438 40.34375 -136.195312 44.84375 -129.59375 C 49.34375 -123 55.992188 -117.800781 64.796875 -114 L 100.796875 -98.09375 C 112.796875 -92.695312 121.84375 -85.648438 127.9375 -76.953125 C 134.039062 -68.253906 137.09375 -58.90625 137.09375 -48.90625 C 137.09375 -34.695312 131.394531 -22.394531 120 -12 C 108.601562 -1.601562 93.40625 3.59375 74.40625 3.59375 Z M 74.40625 3.59375 "/></g></g></g><g fill="#ffffff" fill-opacity="1"><g transform="translate(164.845496, 282.749981)"><g><path d="M 141 -9.59375 L 141 -90.296875 L 53.40625 -90.296875 L 53.40625 -9.59375 C 53.40625 -6.800781 54.800781 -5.40625 57.59375 -5.40625 L 71.703125 -5.40625 L 71.703125 0 L 10.5 0 L 10.5 -5.40625 L 24.59375 -5.40625 C 27.394531 -5.40625 28.796875 -6.800781 28.796875 -9.59375 L 28.796875 -180 C 28.796875 -182.394531 27.394531 -183.59375 24.59375 -183.59375 L 10.5 -183.59375 L 10.5 -189 L 71.703125 -189 L 71.703125 -183.59375 L 57.59375 -183.59375 C 54.800781 -183.59375 53.40625 -182.195312 53.40625 -179.40625 L 53.40625 -98.703125 L 141 -98.703125 L 141 -179.40625 C 141 -182.195312 139.597656 -183.59375 136.796875 -183.59375 L 122.703125 -183.59375 L 122.703125 -189 L 183.90625 -189 L 183.90625 -183.59375 L 169.796875 -183.59375 C 166.992188 -183.59375 165.59375 -182.394531 165.59375 -180 L 165.59375 -9.59375 C 165.59375 -6.800781 166.992188 -5.40625 169.796875 -5.40625 L 183.90625 -5.40625 L 183.90625 0 L 122.703125 0 L 122.703125 -5.40625 L 136.796875 -5.40625 C 139.597656 -5.40625 141 -6.800781 141 -9.59375 Z M 141 -9.59375 "/></g></g></g></svg>